Coordinates
version=1
nRows=21
nColumns=33
inDegrees=yes

Units are S.I. units (second, meters, Newtons, ...)
Angles are in degrees.

endheader
time	ground_thorax_rot_x	ground_thorax_rot_y	ground_thorax_rot_z	ground_thorax_tx	ground_thorax_ty	ground_thorax_tz	clav_prot_r	clav_elev_r	scapula_abduction_r	scapula_elevation_r	scapula_upward_rot_r	scapula_winging_r	shoulder_elv_r	plane_of_elev_r	axial_rot_r	elbow_flexion_r	pro_sup_r	wrist_flex_r	wrist_dev_r	clav_prot_l	clav_elev_l	scapula_abduction_l	scapula_elevation_l	scapula_upward_rot_l	scapula_winging_l	shoulder_elv_l	plane_of_elev_l	axial_rot_l	elbow_flexion_l	pro_sup_l	wrist_flex_l	wrist_dev_l	
2.8500	-0.612771	3.452563	12.178243	-0.112682	1.027236	0.017942	7.870573	-11.215870	13.411373	-3.577050	-1.051186	-1.628094	-41.158087	-75.373863	96.307498	-81.238051	-152.688372	35.925104	-18.378756	11.572451	-1.785288	-15.505791	-20.660153	-36.548223	-0.125502	62.155917	-29.990411	1.891410	69.586512	18.539551	3.007282	-23.905241	
2.8600	-0.655177	3.470947	12.168715	-0.112664	1.027251	0.017856	8.105193	-11.269079	13.992681	-3.786076	-0.660304	-1.842394	-39.538125	-75.072013	97.656861	-81.708379	-153.792030	34.202229	-17.037431	11.730373	-1.980130	-15.776401	-20.397418	-36.413674	0.040673	62.545132	-29.409082	2.147754	69.790179	18.103821	4.675903	-23.183767	
2.8700	-0.703808	3.509338	12.156240	-0.112634	1.027257	0.017754	8.342522	-11.350136	14.579279	-4.018689	-0.271948	-2.047017	-37.880061	-74.734183	98.985044	-82.109387	-154.834346	32.456083	-15.684954	11.901427	-2.186944	-16.064305	-20.106448	-36.244982	0.221239	62.924862	-28.776055	2.374220	69.903707	17.737721	6.289730	-22.256499	
2.8800	-0.762076	3.554631	12.155031	-0.112598	1.027203	0.017634	8.592546	-11.436334	15.180203	-4.246420	0.096802	-2.254135	-36.107186	-74.354271	100.380510	-82.462756	-155.857541	30.569490	-14.201013	12.085556	-2.385468	-16.371416	-19.815933	-36.060859	0.410931	63.284491	-28.084129	2.598194	69.931219	17.378085	7.967665	-21.113970	
2.8900	-0.831692	3.614033	12.149238	-0.112551	1.027136	0.017495	8.846924	-11.551771	15.781296	-4.491974	0.446509	-2.448306	-34.250152	-73.929417	101.784729	-82.741682	-156.785891	28.661510	-12.679674	12.286459	-2.592510	-16.703470	-19.504357	-35.850582	0.616246	63.624993	-27.340093	2.811427	69.846715	17.040289	9.608022	-19.834523	
2.9000	-0.909866	3.685305	12.143822	-0.112483	1.027032	0.017339	9.096697	-11.662066	16.376753	-4.733278	0.800122	-2.642133	-32.291173	-73.456477	103.256313	-82.942229	-157.649961	26.654231	-11.075664	12.508107	-2.808818	-17.068963	-19.172951	-35.618738	0.840540	63.934787	-26.554906	3.022029	69.649248	16.688185	11.252617	-18.483040	
2.9100	-1.003575	3.770860	12.126246	-0.112392	1.026931	0.017152	9.342873	-11.802439	16.970595	-5.003660	1.160492	-2.821837	-30.318112	-72.939631	104.685069	-83.024088	-158.368353	24.709944	-9.511811	12.750307	-3.033922	-17.464497	-18.814177	-35.348230	1.085321	64.208854	-25.729488	3.218745	69.304743	16.344539	12.785731	-17.196190	
2.9200	-1.116490	3.864044	12.108209	-0.112281	1.026844	0.016934	9.587281	-11.959006	17.577437	-5.300014	1.552011	-2.998624	-28.388385	-72.379041	106.053802	-82.961202	-158.973953	22.801148	-7.973760	13.010425	-3.265974	-17.886302	-18.431605	-35.042357	1.347412	64.442243	-24.877056	3.406005	68.805396	16.004578	14.231801	-16.002051	
2.9300	-1.244588	3.959864	12.086970	-0.112157	1.026772	0.016681	9.835601	-12.126663	18.212067	-5.620861	1.983404	-3.180923	-26.529247	-71.774936	107.341225	-82.735281	-159.453696	20.973214	-6.476402	13.288260	-3.503580	-18.334642	-18.027277	-34.702723	1.626806	64.624746	-23.991359	3.598293	68.139503	15.674330	15.591571	-14.919441	
2.9400	-1.386478	4.061453	12.062186	-0.112008	1.026718	0.016403	10.080367	-12.295845	18.873131	-5.966871	2.478401	-3.372169	-24.809021	-71.130670	108.504820	-82.328259	-159.818527	19.268125	-5.065695	13.579701	-3.747473	-18.801743	-17.599129	-34.325649	1.920134	64.761218	-23.079894	3.781158	67.309745	15.376761	16.827041	-13.961258	
2.9500	-1.535788	4.158692	12.030456	-0.111849	1.026653	0.016099	10.331820	-12.452878	19.580491	-6.326298	3.040135	-3.587177	-23.218389	-70.451263	109.564905	-81.749041	-160.075098	17.663768	-3.705244	13.889548	-3.990977	-19.297147	-17.156502	-33.918234	2.230486	64.835467	-22.135325	3.985646	66.324899	15.101984	17.971841	-13.107356	
2.9600	-1.689318	4.247888	12.001172	-0.111693	1.026583	0.015774	10.595006	-12.594539	20.330867	-6.686458	3.645172	-3.825685	-21.713606	-69.736146	110.563214	-80.997096	-160.266103	16.139791	-2.392903	14.215867	-4.246600	-19.820960	-16.697020	-33.499841	2.554886	64.864356	-21.171989	4.212649	65.204953	14.862381	19.051616	-12.315505	
2.9700	-1.846264	4.323410	11.969806	-0.111545	1.026489	0.015432	10.870390	-12.717406	21.117472	-7.036886	4.276541	-4.085791	-20.214045	-68.989337	111.576462	-80.091678	-160.422768	14.650100	-1.089369	14.556882	-4.509757	-20.371779	-16.229898	-33.080080	2.890275	64.854853	-20.184207	4.476046	63.965960	14.650816	20.117782	-11.542134	
2.9800	-2.008061	4.392924	11.933197	-0.111394	1.026388	0.015073	11.144272	-12.835531	21.913795	-7.386724	4.925459	-4.349925	-18.727510	-68.222231	112.592772	-79.022304	-160.548555	13.285418	0.111823	14.905556	-4.782319	-20.936791	-15.751397	-32.653886	3.231971	64.824900	-19.176591	4.744686	62.608505	14.506901	21.101239	-10.828357	
2.9900	-2.176589	4.455318	11.886380	-0.111226	1.026289	0.014698	11.410481	-12.956815	22.714150	-7.745714	5.599291	-4.611032	-17.278215	-67.447372	113.587462	-77.801462	-160.644718	12.043916	1.206947	15.255859	-5.060024	-21.504403	-15.261791	-32.212408	3.574709	64.773277	-18.151543	5.020762	61.134101	14.431520	21.991014	-10.174547	
3.0000	-2.349649	4.515552	11.834440	-0.111036	1.026219	0.014308	11.663838	-13.089099	23.507856	-8.118884	6.292947	-4.860766	-15.903571	-66.669005	114.511843	-76.424808	-160.696193	10.976478	2.143593	15.602030	-5.349324	-22.064421	-14.754339	-31.753374	3.913933	64.705941	-17.116326	5.289037	59.536069	14.445751	22.743995	-9.608575	
3.0100	-2.520736	4.567357	11.779923	-0.110813	1.026154	0.013908	11.899215	-13.205400	24.299311	-8.490695	7.029648	-5.114465	-14.617069	-65.888428	115.376816	-74.914889	-160.693507	10.024261	2.982820	15.943781	-5.637692	-22.616006	-14.239370	-31.273837	4.249403	64.595172	-16.060599	5.581635	57.810713	14.531403	23.397584	-9.112590	
3.0200	-2.680113	4.605163	11.729243	-0.110583	1.026060	0.013505	12.129532	-13.280937	25.101617	-8.832383	7.792914	-5.392005	-13.368454	-65.094330	116.233867	-73.292766	-160.608862	9.157558	3.758931	16.292359	-5.922176	-23.179863	-13.725012	-30.786428	4.589973	64.426693	-14.979301	5.919224	55.962164	14.688090	23.986806	-8.687565	
3.0300	-2.831530	4.627528	11.684126	-0.110345	1.025953	0.013098	12.360200	-13.329099	25.915708	-9.150366	8.568519	-5.686881	-12.161288	-64.291880	117.063894	-71.582792	-160.429164	8.351506	4.479150	16.645007	-6.212120	-23.751732	-13.205289	-30.295746	4.931456	64.214756	-13.889867	6.298924	54.002087	14.900027	24.519001	-8.317830	
3.0400	-2.972116	4.633404	11.642139	-0.110106	1.025827	0.012691	12.594841	-13.345961	26.741827	-9.435879	9.343987	-6.001038	-10.963753	-63.478328	117.892685	-69.807430	-160.127006	7.589594	5.146970	17.005680	-6.508271	-24.339619	-12.682287	-29.808192	5.276989	63.963141	-12.790757	6.728382	51.932227	15.160804	25.000498	-7.998421	
3.0500	-3.111609	4.628222	11.594439	-0.109843	1.025714	0.012288	12.826573	-13.357410	27.570527	-9.713539	10.123193	-6.316491	-9.834274	-62.664292	118.649454	-67.980433	-159.703908	6.904949	5.713743	17.366095	-6.815671	-24.928288	-12.147601	-29.314414	5.619379	63.700049	-11.700356	7.175816	49.760870	15.469162	25.385209	-7.732346	
